<?xml version="1.0" encoding="UTF-8" standalone="no"?>
<!-- Created with Inkscape (http://www.inkscape.org/) -->

<svg
   version="1.1"
   id="svg2"
   width="1343.8"
   height="533.33331"
   viewBox="0 0 1343.8 533.33331"
   sodipodi:docname="2204_w037_n003_315a_p1_315.eps"
   xmlns:inkscape="http://www.inkscape.org/namespaces/inkscape"
   xmlns:sodipodi="http://sodipodi.sourceforge.net/DTD/sodipodi-0.dtd"
   xmlns="http://www.w3.org/2000/svg"
   xmlns:svg="http://www.w3.org/2000/svg">
  <defs
     id="defs6" />
  <sodipodi:namedview
     id="namedview4"
     pagecolor="#ffffff"
     bordercolor="#000000"
     borderopacity="0.25"
     inkscape:showpageshadow="2"
     inkscape:pageopacity="0.0"
     inkscape:pagecheckerboard="0"
     inkscape:deskcolor="#d1d1d1" />
  <g
     id="g8"
     inkscape:groupmode="layer"
     inkscape:label="ink_ext_XXXXXX"
     transform="matrix(1.3333333,0,0,-1.3333333,0,533.33333)">
    <g
       id="g10"
       transform="scale(0.1)">
      <path
         d="M 10078.5,0 H 0 V 4000 H 10078.5 V 0"
         style="fill:#ffffff;fill-opacity:1;fill-rule:nonzero;stroke:none"
         id="path12" />
      <path
         d="m 6784.19,2131.83 c 0,0 25.67,-6.41 31.8,-16.01 6.11,-9.6 4.44,-47.7 4.44,-47.7 0,0 262.3,-25.32 527.17,-324.76 267.97,-302.95 302.59,-484.19 214,-616.29 -117.02,-174.488 -519.73,-127.379 -519.73,-127.379 0,0 -97.08,-14.25 -442.65,-8.972 -319.29,4.883 -497.36,8.972 -497.36,8.972 0,0 -549.95,-132.543 -506.14,231.589 58.12,482.94 637.57,792.75 749.59,836.84 101.13,39.8 193.56,40.83 193.56,40.83 0,0 5.04,18.58 10.55,21.79 29.53,17.15 234.77,1.09 234.77,1.09"
         style="fill:#a37b90;fill-opacity:1;fill-rule:nonzero;stroke:none"
         id="path14" />
      <path
         d="m 6783.89,2462.69 c 0,0 119.72,51.11 129.04,-41.61 10.8,-107.4 -117.57,-108.39 -117.57,-108.39 l -11.47,150"
         style="fill:#f48462;fill-opacity:1;fill-rule:nonzero;stroke:none"
         id="path16" />
      <path
         d="m 6843.5,2366.48 c -1.13,0 -2.27,0.29 -3.3,0.9 -3.14,1.82 -4.2,5.85 -2.37,8.98 l 39.96,68.48 c 1.82,3.14 5.85,4.21 8.99,2.37 3.13,-1.83 4.2,-5.85 2.36,-8.99 l -39.96,-68.48 c -1.22,-2.09 -3.42,-3.26 -5.68,-3.26"
         style="fill:#000000;fill-opacity:1;fill-rule:nonzero;stroke:none"
         id="path18" />
      <path
         d="m 7210.73,1762.95 c 0,0 -26.86,-164.54 106.38,-159.41 133.25,5.14 140.36,195.32 140.36,195.32 l -246.74,-35.91"
         style="fill:#f48462;fill-opacity:1;fill-rule:nonzero;stroke:none"
         id="path20" />
      <path
         d="m 7366.34,1954.46 c 0,0 143.29,257.77 171.04,244.71 27.77,-13.05 -343.76,-572.95 -360.39,-564.96 -16.64,7.99 189.35,320.25 189.35,320.25"
         style="fill:#465884;fill-opacity:1;fill-rule:nonzero;stroke:none"
         id="path22" />
      <path
         d="m 6889.98,2387.02 c -0.11,0 -34.26,0.57 -34.26,0.57 -3.63,0.06 -6.52,3.05 -6.46,6.68 0.06,3.63 2.8,6.32 6.68,6.46 l 34.15,-0.57 c 3.63,-0.06 6.52,-3.05 6.46,-6.68 -0.06,-3.59 -2.99,-6.46 -6.57,-6.46"
         style="fill:#000000;fill-opacity:1;fill-rule:nonzero;stroke:none"
         id="path24" />
      <path
         d="m 6568.04,2207.31 -1.01,-125.71 c 0,0 48.54,-26.14 109.2,-27.17 81.91,-1.39 109.55,47.2 109.55,47.2 l -0.61,147.38 -217.13,-41.7"
         style="fill:#f48462;fill-opacity:1;fill-rule:nonzero;stroke:none"
         id="path26" />
      <path
         d="m 6568.04,2207.5 c 0,0 39.25,-101.76 132.23,-87.87 74.95,11.2 96.38,117.48 96.38,117.48 l -228.61,-29.61"
         style="fill:#000000;fill-opacity:1;fill-rule:nonzero;stroke:none"
         id="path28" />
      <path
         d="m 6821.94,2565.52 c 0,0 52.51,-230.1 -13.39,-331.99 -70.68,-109.29 -184.5,-76.66 -227.1,-43.91 -57.47,44.18 -69.23,105.48 -69.23,105.48 0,0 -79,-15.73 -105.33,48.69 -27.66,67.66 21.52,122.25 61.03,125.48 39.51,3.23 44.12,-3.97 44.12,-3.97 l -11.59,72.26 c 0,0 240.18,266.95 321.49,27.96"
         style="fill:#f48462;fill-opacity:1;fill-rule:nonzero;stroke:none"
         id="path30" />
      <path
         d="m 6499.08,2361.55 c -1.51,0 -3.04,0.53 -4.28,1.58 l -60.95,52.29 c -2.76,2.36 -3.08,6.51 -0.72,9.27 2.36,2.77 6.52,3.06 9.27,0.71 l 60.96,-52.28 c 2.75,-2.37 3.08,-6.52 0.71,-9.27 -1.3,-1.52 -3.14,-2.3 -4.99,-2.3"
         style="fill:#000000;fill-opacity:1;fill-rule:nonzero;stroke:none"
         id="path32" />
      <path
         d="m 6442.78,2351.92 c -2,0 -3.97,0.91 -5.26,2.63 -2.18,2.9 -1.59,7.02 1.31,9.2 l 35.98,27.06 c 2.91,2.18 7.04,1.58 9.2,-1.31 2.18,-2.9 1.6,-7.02 -1.3,-9.2 l -35.99,-27.06 c -1.18,-0.89 -2.57,-1.32 -3.94,-1.32"
         style="fill:#000000;fill-opacity:1;fill-rule:nonzero;stroke:none"
         id="path34" />
      <path
         d="m 6617.91,2425.11 c -3.45,0 -6.35,2.7 -6.55,6.19 l -2.27,38.7 c -0.21,3.63 2.56,6.74 6.18,6.95 3.34,0.06 6.73,-2.55 6.95,-6.17 l 2.26,-38.71 c 0.22,-3.62 -2.56,-6.73 -6.18,-6.95 -0.13,0 -0.25,-0.01 -0.39,-0.01"
         style="fill:#000000;fill-opacity:1;fill-rule:nonzero;stroke:none"
         id="path36" />
      <path
         d="m 6766.08,2433.23 c -3.44,0 -6.34,2.7 -6.55,6.19 l -2.26,38.71 c -0.22,3.62 2.55,6.73 6.18,6.95 3.39,0.13 6.73,-2.55 6.94,-6.18 l 2.27,-38.71 c 0.21,-3.62 -2.56,-6.73 -6.19,-6.95 -0.12,0 -0.25,-0.01 -0.39,-0.01"
         style="fill:#000000;fill-opacity:1;fill-rule:nonzero;stroke:none"
         id="path38" />
      <path
         d="m 6697.71,2330.55 c -0.42,0 -0.84,0.04 -1.27,0.12 -3.57,0.71 -5.88,4.16 -5.18,7.72 11.24,56.95 -7.35,104.5 -7.55,104.97 -1.34,3.37 0.29,7.2 3.66,8.54 3.37,1.36 7.19,-0.28 8.54,-3.64 0.84,-2.08 20.27,-51.49 8.24,-112.42 -0.61,-3.13 -3.36,-5.29 -6.44,-5.29"
         style="fill:#000000;fill-opacity:1;fill-rule:nonzero;stroke:none"
         id="path40" />
      <path
         d="m 6785.6,2516.92 c -1.27,0 -2.55,0.37 -3.69,1.14 -13.98,9.48 -37.31,6.5 -37.57,6.48 -3.52,-0.5 -6.9,2.04 -7.39,5.65 -0.48,3.59 2.04,6.89 5.64,7.38 1.15,0.14 28.53,3.68 46.71,-8.63 2.99,-2.04 3.79,-6.13 1.74,-9.13 -1.26,-1.88 -3.33,-2.89 -5.44,-2.89"
         style="fill:#000000;fill-opacity:1;fill-rule:nonzero;stroke:none"
         id="path42" />
      <path
         d="m 6597.1,2494.07 c -1.42,0 -2.83,0.45 -4.02,1.38 -2.87,2.23 -3.4,6.36 -1.18,9.22 13.46,17.35 40.6,22.47 41.74,22.68 3.56,0.67 6.99,-1.71 7.64,-5.27 0.66,-3.57 -1.7,-6.99 -5.26,-7.66 -0.24,-0.04 -23.37,-4.46 -33.73,-17.8 -1.29,-1.67 -3.24,-2.55 -5.19,-2.55"
         style="fill:#000000;fill-opacity:1;fill-rule:nonzero;stroke:none"
         id="path44" />
      <path
         d="m 6493.81,2464.91 c 0,0 24.83,-70.95 34.02,-68.05 9.2,2.89 -6.28,114.79 -33.02,119.31 -26.72,4.51 -1,-51.26 -1,-51.26"
         style="fill:#000000;fill-opacity:1;fill-rule:nonzero;stroke:none"
         id="path46" />
      <path
         d="m 6505.07,2475.42 c 0,0 79.2,10.59 130.47,54.46 43.3,37.04 58.27,87.63 58.27,87.63 0,0 33.97,6.07 84.2,-21.51 50.22,-27.59 58.62,-120 58.62,-120 0,0 82.31,161.36 36.68,214.77 -45.63,53.4 -113.57,3.82 -113.57,3.82 0,0 7.37,103.2 -132.68,56.5 -140.05,-46.7 -166.45,-170.89 -166.45,-170.89 0,0 -48.69,1.86 -52.48,-43.34 -3.79,-45.21 16.76,-89.96 16.76,-89.96 0,0 20.1,21.06 53.11,10.65 33.01,-10.41 33.01,-10.41 33.01,-10.41 l -5.94,28.28"
         style="fill:#000000;fill-opacity:1;fill-rule:nonzero;stroke:none"
         id="path48" />
      <path
         d="m 6784.19,2131.83 c 0,0 -24.77,-28.29 -87.46,-35.73 -62.7,-7.42 -122.55,38.22 -122.55,38.22 l -33.56,-78.07 105.82,-51.79 166.48,29.76 -7.02,75.23 -21.71,22.38"
         style="fill:#a37b90;fill-opacity:1;fill-rule:nonzero;stroke:none"
         id="path50" />
      <path
         d="m 6293.93,1440.42 c -0.83,0 -1.67,0.16 -2.48,0.49 -2.61,1.06 -262.44,105.06 -476.5,10.94 -3.29,-1.47 -7.2,0.03 -8.66,3.36 -1.47,3.33 0.05,7.2 3.37,8.67 219.25,96.37 484.11,-9.73 486.76,-10.8 3.36,-1.38 4.96,-5.21 3.59,-8.57 -1.05,-2.55 -3.5,-4.09 -6.08,-4.09"
         style="fill:#92b4ea;fill-opacity:1;fill-rule:nonzero;stroke:none"
         id="path52" />
      <path
         d="m 5964.89,1579.54 c -5.08,0 -9.71,-1.09 -13.78,-3.51 -1.59,-0.95 -4.23,-2.81 -4.02,-4.51 1.72,-13.61 61,-39.8 122.21,-59.68 -28.46,28.73 -74.13,67.7 -104.41,67.7 z m 126.18,-87.91 c -0.61,0 -1.24,0.09 -1.86,0.27 -35.4,10.45 -151.24,46.97 -155.16,77.98 -0.6,4.78 0.7,11.69 10.33,17.43 49.37,29.51 141.32,-72.99 151.64,-84.78 1.93,-2.2 2.16,-5.41 0.59,-7.87 -1.23,-1.93 -3.34,-3.03 -5.54,-3.03"
         style="fill:#92b4ea;fill-opacity:1;fill-rule:nonzero;stroke:none"
         id="path54" />
      <path
         d="m 6144.86,1012.51 c -3.07,0 -5.82,2.17 -6.43,5.3 -0.71,3.56 1.61,7.01 5.17,7.72 81.44,16.07 145.11,77.18 145.75,77.8 2.6,2.53 6.76,2.47 9.29,-0.14 2.53,-2.6 2.46,-6.76 -0.13,-9.29 -2.71,-2.62 -67.14,-64.45 -152.37,-81.26 -0.43,-0.09 -0.86,-0.13 -1.28,-0.13"
         style="fill:#92b4ea;fill-opacity:1;fill-rule:nonzero;stroke:none"
         id="path56" />
      <path
         d="m 7422.49,1853.98 c 0,0 117.53,4 86.02,60.45 -31.52,56.45 -240.14,99 -267.66,37.91 -27.52,-61.08 181.64,-98.36 181.64,-98.36"
         style="fill:#f48462;fill-opacity:1;fill-rule:nonzero;stroke:none"
         id="path58" />
      <path
         d="m 7402.15,1758.84 c 0,0 117.53,3.99 86.01,60.45 -31.51,56.44 -240.13,98.99 -267.65,37.91 -27.52,-61.09 181.64,-98.36 181.64,-98.36"
         style="fill:#f48462;fill-opacity:1;fill-rule:nonzero;stroke:none"
         id="path60" />
      <path
         d="m 7324.47,1690.98 c 26,-4.84 52.99,-3.78 77.82,5.33 22.16,8.13 40.57,22.35 25.51,46.68 -30.11,48.64 -216.25,77.91 -238.13,22.8 -16.31,-41.07 83.13,-65.19 134.8,-74.81"
         style="fill:#f48462;fill-opacity:1;fill-rule:nonzero;stroke:none"
         id="path62" />
      <path
         d="m 7452.01,1866.78 c -0.34,0 -0.68,0.03 -1.02,0.08 l -160.35,25.02 c -3.58,0.56 -6.03,3.93 -5.47,7.51 0.56,3.6 3.98,5.99 7.51,5.48 l 160.34,-25.03 c 3.58,-0.55 6.03,-3.92 5.48,-7.51 -0.51,-3.24 -3.3,-5.55 -6.49,-5.55"
         style="fill:#000000;fill-opacity:1;fill-rule:nonzero;stroke:none"
         id="path64" />
      <path
         d="m 7417.87,1768.78 c -0.34,0 -0.68,0.03 -1.02,0.08 l -160.35,25.03 c -3.58,0.55 -6.03,3.92 -5.47,7.51 0.56,3.59 3.98,5.97 7.51,5.47 l 160.34,-25.02 c 3.58,-0.56 6.03,-3.93 5.48,-7.51 -0.51,-3.25 -3.31,-5.56 -6.49,-5.56"
         style="fill:#000000;fill-opacity:1;fill-rule:nonzero;stroke:none"
         id="path66" />
      <path
         d="m 6712.81,2004.52 c -10.16,0 -21.05,1.05 -32.65,3.43 -3.56,0.73 -5.84,4.21 -5.11,7.76 0.72,3.56 4.18,5.87 7.76,5.12 89.46,-18.43 130.29,47.82 131.98,50.65 1.85,3.12 5.87,4.15 9,2.28 3.11,-1.86 4.14,-5.88 2.29,-8.99 -0.41,-0.69 -36.77,-60.25 -113.27,-60.25"
         style="fill:#92b4ea;fill-opacity:1;fill-rule:nonzero;stroke:none"
         id="path68" />
      <path
         d="m 6671.29,2263.52 c -13.63,0 -34.94,5.42 -50.11,34.91 -1.66,3.23 -0.39,7.19 2.83,8.85 3.26,1.67 7.2,0.39 8.85,-2.84 18.49,-35.94 46.16,-27.08 47.34,-26.68 3.38,1.14 7.14,-0.66 8.34,-4.07 1.18,-3.42 -0.6,-7.13 -4.01,-8.34 -0.14,-0.05 -5.43,-1.83 -13.24,-1.83"
         style="fill:#000000;fill-opacity:1;fill-rule:nonzero;stroke:none"
         id="path70" />
      <path
         d="m 2229.37,2180 c 0,0 -182.4,-7.39 -142.74,-59.08 28.02,-36.52 94.62,-18.27 94.62,-18.27 0,0 13.24,-270.09 54.63,-281.75 79.56,-22.42 89.4,243.52 -6.51,359.1"
         style="fill:#f48462;fill-opacity:1;fill-rule:nonzero;stroke:none"
         id="path72" />
      <path
         d="m 3653.75,2544.06 c 37.2,3.78 75.22,-4.94 105.16,-27.36 26.21,-19.63 50.99,-51.86 58.88,-104.65 18.95,-126.71 -27.12,-160.5 43.87,-209.74 70.98,-49.24 112.44,-21.13 155.14,-139.71 42.7,-118.58 -31.15,-274.27 -176.18,-238.9 -145.04,35.36 -496.28,140.37 -496.28,140.37 l -3.72,522.93 178.11,43.33 135.02,13.73"
         style="fill:#000000;fill-opacity:1;fill-rule:nonzero;stroke:none"
         id="path74" />
      <path
         d="m 1873.66,1891.5 c 0,0 130.02,-149.21 276.5,-129.4 93.47,12.64 140.25,222.86 140.25,222.86 l -158.64,124.31 -258.11,-217.77"
         style="fill:#f48462;fill-opacity:1;fill-rule:nonzero;stroke:none"
         id="path76" />
      <path
         d="m 3291.32,2078.96 c 0,0 -158.58,-22.69 -261.24,-209.34 -102.67,-186.65 -188.88,-701.29 -173.15,-717.54 15.73,-16.25 358.2,-65.01 642.12,-65.01 283.91,0 372.89,10.84 400.27,27.09 27.38,16.25 20.33,894.89 -136.89,964.8 -157.22,69.9 -302.39,55.89 -471.11,0"
         style="fill:#6876aa;fill-opacity:1;fill-rule:nonzero;stroke:none"
         id="path78" />
      <path
         d="m 2340.73,1997.14 -271.89,-273.09 c 0,0 166.17,-328.97 536.33,-376.89 370.15,-47.91 584.45,186.76 584.45,186.76 l 62.26,536.71 c 0,0 -400.22,-179.93 -543.72,-198.45 -143.5,-18.53 -367.43,124.96 -367.43,124.96"
         style="fill:#6876aa;fill-opacity:1;fill-rule:nonzero;stroke:none"
         id="path80" />
      <path
         d="m 3251.88,2070.63 c 0,0 -249.13,-390.57 -298.34,-643.3 -49.21,-252.73 -58.77,-431.631 -58.77,-431.631 l 905.24,-5.597 16.21,687.578 -95.54,407.25 -264,35.82 -204.8,-50.12"
         style="fill:#f7b369;fill-opacity:1;fill-rule:nonzero;stroke:none"
         id="path82" />
      <path
         d="m 3251.88,2070.63 c 0,0 -127.07,-470.22 -153.9,-634.49 -26.83,-164.27 -32.38,-321.26 -32.38,-321.26 l -166.1,24.81 63.42,385.55 226.7,493.34 62.26,52.05"
         style="fill:#6876aa;fill-opacity:1;fill-rule:nonzero;stroke:none"
         id="path84" />
      <path
         d="m 3190.96,2449.44 c 0,0 -67.48,115.61 -60.81,164.51 16.45,120.53 188.09,200.19 356.08,139.14 167.99,-61.05 197.48,-272.28 168.81,-363.24 -73.84,-234.23 -277.73,-147.33 -277.73,-147.33 0,0 -318.62,67.3 -186.35,206.92"
         style="fill:#000000;fill-opacity:1;fill-rule:nonzero;stroke:none"
         id="path86" />
      <path
         d="m 3241.43,2196.33 0.24,-4.4 7.5,-82.66 5.63,-64.84 c 0,0 -4.85,-15.35 70.53,-6.97 101.02,11.62 131.68,56.66 131.68,56.66 l -2.7,152.46 -30.45,-7.27 -182.43,-42.98"
         style="fill:#f48462;fill-opacity:1;fill-rule:nonzero;stroke:none"
         id="path88" />
      <path
         d="m 3241.67,2191.93 7.5,-82.66 c 48.97,8.24 137.61,33.69 170.25,112.81 2.49,6.43 4.08,12.17 4.46,16.91 l -181.97,-45.78 -0.24,-1.28"
         style="fill:#000000;fill-opacity:1;fill-rule:nonzero;stroke:none"
         id="path90" />
      <path
         d="m 3191.28,2586.93 c 0,0 -84.31,-220.03 -44.77,-339.64 39.53,-119.61 149.06,-95.45 214.03,-68.99 64.98,26.47 93.78,68.39 93.78,68.39 0,0 62.66,-18.08 101.29,41.2 38.63,59.28 10.18,124 -25.75,137.48 -35.92,13.47 -76.65,-13.9 -76.65,-13.9 l 29.95,64.2 c 0,0 -152.82,312.19 -291.88,111.26"
         style="fill:#f48462;fill-opacity:1;fill-rule:nonzero;stroke:none"
         id="path92" />
      <path
         d="m 3213.49,2313.63 c -2.67,0 -5.19,1.64 -6.17,4.3 -16.64,45.21 13.3,93.7 14.58,95.74 1.94,3.07 5.99,3.99 9.05,2.07 3.08,-1.93 4.01,-5.98 2.08,-9.06 -0.28,-0.44 -27.76,-45.12 -13.37,-84.21 1.25,-3.41 -0.49,-7.18 -3.9,-8.44 -0.75,-0.27 -1.52,-0.4 -2.27,-0.4"
         style="fill:#000000;fill-opacity:1;fill-rule:nonzero;stroke:none"
         id="path94" />
      <path
         d="m 3467.35,2311.13 c -1.5,0 -3.01,0.51 -4.25,1.56 -2.77,2.35 -3.1,6.49 -0.76,9.26 l 55.3,65.16 c 2.35,2.76 6.49,3.11 9.26,0.76 2.77,-2.35 3.1,-6.5 0.76,-9.27 l -55.3,-65.15 c -1.3,-1.54 -3.15,-2.32 -5.01,-2.32"
         style="fill:#000000;fill-opacity:1;fill-rule:nonzero;stroke:none"
         id="path96" />
      <path
         d="m 3528.48,2331.04 c -0.21,0 -0.43,0 -0.65,0.03 l -40.83,4 c -3.62,0.35 -6.26,3.56 -5.9,7.18 0.35,3.6 3.66,6.25 7.18,5.89 l 40.83,-3.99 c 3.61,-0.36 6.26,-3.57 5.9,-7.18 -0.33,-3.4 -3.19,-5.93 -6.53,-5.93"
         style="fill:#000000;fill-opacity:1;fill-rule:nonzero;stroke:none"
         id="path98" />
      <path
         d="m 3262.11,2270.65 c 8.68,-5.05 22.14,-10.1 34.41,-3.14 11.68,6.63 18.97,17.27 23.23,25.73 z m 21.23,-19.79 c -20.95,0 -38.41,15.78 -39.36,16.64 -1.67,1.54 -2.42,3.83 -2.01,6.05 0.42,2.23 1.96,4.09 4.07,4.91 l 82.82,32.47 c 2.27,0.9 4.86,0.45 6.7,-1.15 1.85,-1.61 2.65,-4.1 2.09,-6.48 -0.31,-1.3 -7.82,-31.99 -34.64,-47.22 -6.64,-3.77 -13.32,-5.22 -19.67,-5.22"
         style="fill:#000000;fill-opacity:1;fill-rule:nonzero;stroke:none"
         id="path100" />
      <path
         d="m 3340.32,2478.2 c -2.26,0 -4.47,1.17 -5.69,3.26 -10.88,18.68 -36.99,11.99 -38.1,11.69 -3.5,-0.92 -7.1,1.14 -8.04,4.64 -0.95,3.5 1.11,7.1 4.61,8.05 1.5,0.4 36.9,9.68 52.89,-17.76 1.83,-3.13 0.77,-7.16 -2.37,-8.99 -1.04,-0.6 -2.18,-0.89 -3.3,-0.89"
         style="fill:#000000;fill-opacity:1;fill-rule:nonzero;stroke:none"
         id="path102" />
      <path
         d="m 3172.92,2494.26 c -1.7,0 -3.41,0.66 -4.7,1.97 -2.53,2.59 -2.5,6.74 0.09,9.28 0.7,0.69 17.61,16.68 35.99,15.51 9.18,-0.65 17.07,-5.22 23.46,-13.58 2.21,-2.89 1.66,-7.02 -1.22,-9.22 -2.88,-2.21 -7,-1.65 -9.22,1.23 -4.05,5.3 -8.6,8.06 -13.91,8.45 -12.54,0.96 -25.76,-11.64 -25.9,-11.77 -1.27,-1.25 -2.93,-1.87 -4.59,-1.87"
         style="fill:#000000;fill-opacity:1;fill-rule:nonzero;stroke:none"
         id="path104" />
      <path
         d="m 3187.19,2402.49 c -0.21,0 -0.42,0.01 -0.62,0.03 -3.62,0.34 -6.27,3.54 -5.94,7.15 l 3.52,37.52 -14.36,15.97 c -2.43,2.7 -2.21,6.85 0.49,9.28 2.69,2.42 6.85,2.2 9.28,-0.49 l 16.28,-18.11 c 1.23,-1.37 1.83,-3.18 1.66,-5.01 l -3.78,-40.38 c -0.32,-3.41 -3.18,-5.96 -6.53,-5.96"
         style="fill:#000000;fill-opacity:1;fill-rule:nonzero;stroke:none"
         id="path106" />
      <path
         d="m 3306.95,2399.21 c -4.11,0.29 -6.83,3.44 -6.56,7.06 l 2.76,37.2 -21.12,18.72 c -2.72,2.4 -2.97,6.56 -0.57,9.27 2.42,2.74 6.57,2.97 9.28,0.56 l 23.56,-20.87 c 1.54,-1.36 2.35,-3.36 2.2,-5.41 l -3,-40.45 c -0.26,-3.45 -3.14,-6.08 -6.55,-6.08"
         style="fill:#000000;fill-opacity:1;fill-rule:nonzero;stroke:none"
         id="path108" />
      <path
         d="m 3566.77,2617.75 c 0,0 -23.04,258.67 153.53,230.52 187.06,-29.83 10.5,-328.39 -109.07,-312.04 -53.23,7.27 -44.46,81.52 -44.46,81.52"
         style="fill:#000000;fill-opacity:1;fill-rule:nonzero;stroke:none"
         id="path110" />
      <path
         d="m 3274.27,1639.67 c 0,0 -59.97,314.03 -90.88,348.04 -30.91,33.99 -234.31,123.8 -260.21,99.09 -25.91,-24.71 0.44,-55.75 0.44,-55.75 0,0 -38.67,22.09 -53.23,-1.04 -14.56,-23.13 13.66,-59.08 13.66,-59.08 0,0 -30.84,19.41 -26.75,-23.63 4.1,-43.03 88.52,-121.79 88.52,-121.79 0,0 4.87,-87.96 58.94,-182.51 54.07,-94.55 218.67,-98.78 218.67,-98.78 l 50.84,95.45"
         style="fill:#f48462;fill-opacity:1;fill-rule:nonzero;stroke:none"
         id="path112" />
      <path
         d="m 3085.36,1945.32 c -1.02,0 -2.06,0.24 -3.03,0.74 l -161.21,84.1 c -3.22,1.68 -4.47,5.65 -2.79,8.86 1.68,3.23 5.65,4.47 8.86,2.79 l 161.21,-84.09 c 3.23,-1.68 4.47,-5.65 2.79,-8.86 -1.17,-2.25 -3.46,-3.54 -5.83,-3.54"
         style="fill:#000000;fill-opacity:1;fill-rule:nonzero;stroke:none"
         id="path114" />
      <path
         d="m 3041.78,1865.61 c -1.19,0 -2.4,0.32 -3.48,1 l -157.73,98.75 c -3.08,1.93 -4.01,5.98 -2.09,9.05 1.94,3.08 5.99,4.03 9.06,2.08 l 157.73,-98.75 c 3.08,-1.92 4.01,-5.97 2.09,-9.05 -1.25,-1.99 -3.39,-3.08 -5.58,-3.08"
         style="fill:#000000;fill-opacity:1;fill-rule:nonzero;stroke:none"
         id="path116" />
      <path
         d="m 3290.51,2025.76 c -22.82,0 -38.05,2.43 -39.72,2.72 -3.57,0.6 -5.99,3.98 -5.39,7.56 0.6,3.58 4,6.04 7.56,5.4 1.07,-0.19 109.14,-17.3 190.66,44.33 2.89,2.17 7.01,1.61 9.21,-1.28 2.19,-2.9 1.62,-7.02 -1.28,-9.21 -55.22,-41.74 -120.26,-49.52 -161.04,-49.52"
         style="fill:#465884;fill-opacity:1;fill-rule:nonzero;stroke:none"
         id="path118" />
      <path
         d="m 3004.76,1525.24 c 0,0 268.76,-566.549 682.85,-535.138 414.08,31.398 382.82,760.778 252.78,945.628 -130.05,184.85 -314.65,182.5 -314.65,182.5 L 3456.68,1643 3318.35,1760.87 3004.76,1525.24"
         style="fill:#6876aa;fill-opacity:1;fill-rule:nonzero;stroke:none"
         id="path120" />
      <path
         d="m 3456.68,2120.75 c 0,0 -232.37,-1019.66 -187.72,-1024.95 44.65,-5.3 397.78,-22.41 397.78,-22.41 l -41,1044.84 -169.06,2.52"
         style="fill:#6876aa;fill-opacity:1;fill-rule:nonzero;stroke:none"
         id="path122" />
      <path
         d="m 3653.75,2537.49 c -3.41,0 -6.29,2.63 -6.55,6.08 -8.4,112.61 -82.97,154.95 -83.72,155.37 -3.17,1.74 -4.34,5.74 -2.6,8.92 1.75,3.17 5.73,4.35 8.91,2.6 3.33,-1.81 81.57,-45.86 90.51,-165.91 0.27,-3.62 -2.44,-6.78 -6.06,-7.05 -0.17,-0.01 -0.33,-0.01 -0.49,-0.01"
         style="fill:#f7b369;fill-opacity:1;fill-rule:nonzero;stroke:none"
         id="path124" />
      <path
         d="m 3718.14,1395.83 c -1.6,0 -3.21,0.59 -4.48,1.77 l -334.76,312.11 c -2.65,2.47 -2.8,6.63 -0.33,9.28 2.48,2.65 6.64,2.8 9.29,0.33 l 334.77,-312.11 c 2.65,-2.47 2.79,-6.63 0.32,-9.29 -1.29,-1.39 -3.05,-2.09 -4.81,-2.09"
         style="fill:#465884;fill-opacity:1;fill-rule:nonzero;stroke:none"
         id="path126" />
      <path
         d="m 3606.55,1531.32 c 54.05,-13.62 145.2,-30.92 174.41,-11.57 5,3.31 7.73,7.53 8.34,12.9 0.38,3.27 -0.54,5.69 -2.95,7.83 -19.84,17.57 -110.46,5.54 -179.8,-9.16 z m 129.64,-33.24 c -64.28,0 -153.79,26.04 -158.79,27.51 -2.85,0.84 -4.79,3.49 -4.71,6.47 0.07,2.98 2.14,5.53 5.03,6.22 18.59,4.47 182.69,42.74 217.34,12.04 5.64,-5 8.17,-11.63 7.3,-19.18 -1.07,-9.32 -5.83,-16.84 -14.14,-22.35 -11.74,-7.77 -30.47,-10.71 -52.03,-10.71"
         style="fill:#465884;fill-opacity:1;fill-rule:nonzero;stroke:none"
         id="path128" />
      <path
         d="m 2707.88,1846.28 c -10.18,-40.67 -21.9,-104.4 -8.11,-127.05 2.49,-4.09 5.54,-6.35 9.59,-7.09 3.94,-0.74 5.75,0.56 7.01,1.92 13.41,14.55 3.42,81.1 -8.49,132.22 z m 3.61,-147.5 c -1.46,0 -2.97,0.15 -4.53,0.43 -7.77,1.43 -13.97,5.88 -18.42,13.18 -23.15,38.05 9.53,149.15 13.33,161.69 0.85,2.81 3.36,4.82 6.39,4.67 2.93,-0.05 5.48,-2.02 6.24,-4.85 3.89,-14.34 37.22,-140.86 11.53,-168.74 -3.88,-4.21 -8.85,-6.38 -14.54,-6.38"
         style="fill:#465884;fill-opacity:1;fill-rule:nonzero;stroke:none"
         id="path130" />
      <path
         d="m 2886.07,1357.59 c -0.4,0 -0.8,0.04 -1.2,0.11 -3.57,0.66 -5.93,4.09 -5.28,7.65 l 26.87,145.61 c 0.66,3.57 4.15,5.88 7.66,5.27 3.57,-0.66 5.92,-4.09 5.27,-7.66 l -26.87,-145.6 c -0.58,-3.17 -3.35,-5.38 -6.45,-5.38"
         style="fill:#465884;fill-opacity:1;fill-rule:nonzero;stroke:none"
         id="path132" />
      <path
         d="m 3303.57,2675.69 c 0,0 -27.62,-33.82 -32.62,-89.3 -4.99,-55.49 -4.99,-55.49 -4.99,-55.49 l 228.45,-72.65 7.36,111.24 -198.2,106.2"
         style="fill:#000000;fill-opacity:1;fill-rule:nonzero;stroke:none"
         id="path134" />
      <path
         d="m 3283.6,2639.34 c 0,0 -20.64,-17.14 -30.35,-40.54 -9.71,-23.39 -20.41,-70.05 -20.41,-70.05 l -66.43,9.09 10.41,116.1 91.19,52.84 54.14,-7.41 -10.21,-74.69 -28.34,14.66"
         style="fill:#000000;fill-opacity:1;fill-rule:nonzero;stroke:none"
         id="path136" />
      <path
         d="m 2198.43,1587.58 h -335.52 c -19.26,0 -35.62,14.11 -38.44,33.17 l -110.51,746.67 c -3.47,23.48 14.72,44.56 38.45,44.56 h 335.51 c 19.27,0 35.62,-14.12 38.45,-33.18 l 110.5,-746.67 c 3.48,-23.47 -14.72,-44.55 -38.44,-44.55"
         style="fill:#ece8ef;fill-opacity:1;fill-rule:nonzero;stroke:none"
         id="path138" />
      <path
         d="m 2215.42,1914.98 c -1.75,0 -3.51,0.7 -4.8,2.09 -59.89,64.31 -35.48,161.03 -34.41,165.11 0.91,3.51 4.5,5.63 8.01,4.7 3.51,-0.92 5.61,-4.5 4.7,-8.02 -0.24,-0.93 -23.59,-93.87 31.31,-152.82 2.48,-2.66 2.33,-6.82 -0.33,-9.29 -1.26,-1.18 -2.87,-1.77 -4.48,-1.77"
         style="fill:#000000;fill-opacity:1;fill-rule:nonzero;stroke:none"
         id="path140" />
      <path
         d="m 2080.99,2274.58 h -272.78 c -3.63,0 -6.57,2.94 -6.57,6.57 0,3.63 2.94,6.57 6.57,6.57 h 272.78 c 3.62,0 6.57,-2.94 6.57,-6.57 0,-3.63 -2.95,-6.57 -6.57,-6.57"
         style="fill:#b1a5b7;fill-opacity:1;fill-rule:nonzero;stroke:none"
         id="path142" />
      <path
         d="m 2089.79,2204.95 h -272.77 c -3.63,0 -6.58,2.95 -6.58,6.57 0,3.63 2.95,6.58 6.58,6.58 h 272.77 c 3.63,0 6.58,-2.95 6.58,-6.58 0,-3.62 -2.95,-6.57 -6.58,-6.57"
         style="fill:#b1a5b7;fill-opacity:1;fill-rule:nonzero;stroke:none"
         id="path144" />
      <path
         d="m 2098.75,2135.33 h -272.78 c -3.63,0 -6.57,2.95 -6.57,6.57 0,3.63 2.94,6.58 6.57,6.58 h 272.78 c 3.63,0 6.57,-2.95 6.57,-6.58 0,-3.62 -2.94,-6.57 -6.57,-6.57"
         style="fill:#b1a5b7;fill-opacity:1;fill-rule:nonzero;stroke:none"
         id="path146" />
      <path
         d="m 2111.8,2066.9 h -272.77 c -3.63,0 -6.57,2.94 -6.57,6.57 0,3.63 2.94,6.57 6.57,6.57 h 272.77 c 3.63,0 6.57,-2.94 6.57,-6.57 0,-3.63 -2.94,-6.57 -6.57,-6.57"
         style="fill:#b1a5b7;fill-opacity:1;fill-rule:nonzero;stroke:none"
         id="path148" />
      <path
         d="m 2121.21,1993.21 h -272.78 c -3.63,0 -6.57,2.94 -6.57,6.57 0,3.63 2.94,6.57 6.57,6.57 h 272.78 c 3.62,0 6.57,-2.94 6.57,-6.57 0,-3.63 -2.95,-6.57 -6.57,-6.57"
         style="fill:#b1a5b7;fill-opacity:1;fill-rule:nonzero;stroke:none"
         id="path150" />
      <path
         d="m 2229.37,2180 c 0,0 -154.32,17.71 -142.74,-59.08 6.66,-44.12 141.46,-38.72 141.46,-38.72 l 1.28,97.8"
         style="fill:#f48462;fill-opacity:1;fill-rule:nonzero;stroke:none"
         id="path152" />
      <path
         d="M 10078.5,890.582 H 0 V 1117.07 H 10078.5 V 890.582"
         style="fill:#ebe8ee;fill-opacity:1;fill-rule:nonzero;stroke:none"
         id="path154" />
      <path
         d="m 5552.27,2305.05 c 4.94,51.57 -20.63,96.21 -57.1,99.71 l -18.57,3.14 c -2.2,0.53 -4.44,0.91 -6.74,1.13 -36.47,3.5 -70.06,-35.47 -75,-87.04 -4.95,-51.57 20.62,-96.21 57.1,-99.7 l 18.57,-3.14 c 2.19,-0.54 4.44,-0.92 6.73,-1.14 36.48,-3.5 70.05,35.47 75.01,87.04"
         style="fill:#465884;fill-opacity:1;fill-rule:nonzero;stroke:none"
         id="path156" />
      <path
         d="m 5583.08,1092.54 1.99,-66.18 c 0,0 -201.13,-99.141 -478.6,-101.848 -223.3,-2.313 -490.64,64.34 -490.64,64.34 l 14.03,89.218 11.69,74 23.24,146.66 11.68,73.99 7.93,50.38 -382.87,61.07 c 0,0 143.92,444.45 446.51,578.95 259.99,115.46 584.42,49.34 737.76,-22.94 165.66,-78.08 94.98,-869.32 94.98,-869.32 l 2.3,-78.32"
         style="fill:#f7b369;fill-opacity:1;fill-rule:nonzero;stroke:none"
         id="path158" />
      <path
         d="m 5583.08,1092.54 c -222.2,-75.88 -482.58,-74.05 -679.6,-55.32 -126.14,11.98 -226.28,30.95 -273.62,40.85 l 11.69,74 c 110.7,-22.97 590.68,-110.43 939.23,18.79 l 2.3,-78.32"
         style="fill:#6876aa;fill-opacity:1;fill-rule:nonzero;stroke:none"
         id="path160" />
      <path
         d="m 5575.61,1343.47 0.54,-17.89 c -246.96,-74.57 -530.96,-68.86 -730.8,-49.87 -73.69,7.01 -135.83,15.76 -180.56,23.02 l 11.68,73.99 c 166.6,-26.32 556.18,-72.76 897.16,24.67 l 1.98,-53.92"
         style="fill:#6876aa;fill-opacity:1;fill-rule:nonzero;stroke:none"
         id="path162" />
      <path
         d="m 4764.08,1510.95 15.14,75.11 c 5.16,-0.29 494.55,-22.06 779.78,49.54 l 5.59,-73.07 c -296.3,-74.35 -778.98,-52.79 -800.51,-51.58"
         style="fill:#6876aa;fill-opacity:1;fill-rule:nonzero;stroke:none"
         id="path164" />
      <path
         d="m 4741.64,1414.77 c -0.55,0 -1.11,0.06 -1.68,0.21 -3.5,0.93 -5.6,4.52 -4.68,8.04 l 44.88,170.02 c 0.92,3.49 4.45,5.6 8.03,4.67 3.51,-0.92 5.61,-4.52 4.68,-8.03 L 4748,1419.66 c -0.78,-2.95 -3.44,-4.89 -6.36,-4.89"
         style="fill:#ffffff;fill-opacity:1;fill-rule:nonzero;stroke:none"
         id="path166" />
      <path
         d="m 4371.96,1472.52 c 0,0 -27.56,-257.04 99.05,-403.25 158.85,-183.461 814.75,-132.84 814.75,-132.84 l 9.94,241.97 -554.84,242.94 -368.9,51.18"
         style="fill:#f48462;fill-opacity:1;fill-rule:nonzero;stroke:none"
         id="path168" />
      <path
         d="m 5180.35,2253.75 -50.22,-166.12 c 0,0 15.52,-56.81 110.32,-94.09 70.61,-27.77 105.03,3.85 105.03,3.85 l 11.31,64.25 14.84,85.05 -163.81,91.65 -27.47,15.41"
         style="fill:#ef795e;fill-opacity:1;fill-rule:nonzero;stroke:none"
         id="path170" />
      <path
         d="m 5207.82,2238.34 c -0.94,-4.66 -0.85,-10.54 -0.02,-17.49 12.09,-94.22 108.3,-142.83 148.99,-159.21 l 14.84,85.05 -163.81,91.65"
         style="fill:#000000;fill-opacity:1;fill-rule:nonzero;stroke:none"
         id="path172" />
      <path
         d="m 5523.14,2514.14 c 0,0 24.22,-234.63 -45.13,-339.97 -69.35,-105.33 -168.93,-53.47 -224.86,-10.97 -55.91,42.5 -72.84,90.52 -72.84,90.52 0,0 -65.28,-1.17 -87.18,66.19 -21.92,67.36 22.43,122.52 60.67,126.19 38.23,3.68 70.48,-33.38 70.48,-33.38 l -12.25,69.85 c 0,0 229,262 311.11,31.57"
         style="fill:#ef795e;fill-opacity:1;fill-rule:nonzero;stroke:none"
         id="path174" />
      <path
         d="m 5432.23,2255.52 c -1.31,0 -2.64,0.39 -3.79,1.2 -2.96,2.1 -3.66,6.2 -1.56,9.16 24.08,34.05 9.14,84.39 8.98,84.9 -1.06,3.47 0.9,7.14 4.36,8.2 3.47,1.06 7.14,-0.87 8.21,-4.35 0.71,-2.31 17.03,-56.96 -10.83,-96.33 -1.28,-1.82 -3.31,-2.78 -5.37,-2.78"
         style="fill:#000000;fill-opacity:1;fill-rule:nonzero;stroke:none"
         id="path176" />
      <path
         d="m 5186.2,2318.29 c -2.8,0 -5.49,1.58 -6.76,4.28 l -36.48,77.38 c -1.76,3.73 -0.17,8.17 3.56,9.93 3.72,1.79 8.19,0.17 9.94,-3.56 l 36.48,-77.38 c 1.76,-3.73 0.17,-8.17 -3.56,-9.93 -1.03,-0.49 -2.11,-0.72 -3.18,-0.72"
         style="fill:#000000;fill-opacity:1;fill-rule:nonzero;stroke:none"
         id="path178" />
      <path
         d="m 5172.82,2346.67 c -0.41,0 -0.82,0.04 -1.24,0.11 l -40.52,6.76 c -4.06,0.68 -6.8,4.53 -6.13,8.59 0.69,4.07 4.47,6.86 8.6,6.13 l 40.51,-6.76 c 4.07,-0.68 6.81,-4.52 6.14,-8.59 -0.62,-3.65 -3.77,-6.24 -7.36,-6.24"
         style="fill:#000000;fill-opacity:1;fill-rule:nonzero;stroke:none"
         id="path180" />
      <path
         d="m 5224.28,2412.72 c 0,0 16.65,-20.85 39.94,-1.77 23.28,19.08 12.85,101.35 12.85,101.35 0,0 58.9,-35.22 105.09,-27.03 46.2,8.2 84.4,59.78 84.4,59.78 0,0 9.25,-69.76 104.75,-71.59 95.51,-1.84 150.67,110.94 65.86,165.35 -84.83,54.41 -148.87,29.95 -148.87,29.95 0,0 16.27,89.61 -112.19,84.7 -117.03,-4.48 -177.42,-129.53 -177.42,-129.53 0,0 -63.67,17.57 -98.02,-46.69 -34.34,-64.27 29.34,-139.7 29.34,-139.7 0,0 53.98,11.77 94.27,-24.82"
         style="fill:#000000;fill-opacity:1;fill-rule:nonzero;stroke:none"
         id="path182" />
      <path
         d="m 5352.48,2447.61 c -1.69,0 -3.39,0.65 -4.67,1.96 -2.56,2.57 -2.53,6.73 0.05,9.29 22.6,22.34 54.4,4.17 55.73,3.4 3.14,-1.83 4.18,-5.84 2.37,-8.97 -1.82,-3.14 -5.83,-4.2 -8.98,-2.39 -0.99,0.57 -24.48,13.86 -39.88,-1.39 -1.28,-1.26 -2.95,-1.9 -4.62,-1.9"
         style="fill:#000000;fill-opacity:1;fill-rule:nonzero;stroke:none"
         id="path184" />
      <path
         d="m 5518.49,2419.57 c -2.26,0 -4.45,1.15 -5.68,3.22 -0.09,0.16 -9.43,15.71 -21.97,18.12 -5.21,1.01 -10.34,-0.46 -15.64,-4.54 -2.86,-2.2 -6.99,-1.69 -9.22,1.21 -2.21,2.88 -1.67,7 1.21,9.21 8.34,6.41 17.1,8.77 26.21,7.02 18.38,-3.59 30.25,-23.51 30.74,-24.36 1.84,-3.12 0.79,-7.14 -2.33,-8.98 -1.05,-0.61 -2.19,-0.9 -3.32,-0.9"
         style="fill:#000000;fill-opacity:1;fill-rule:nonzero;stroke:none"
         id="path186" />
      <path
         d="m 5249.78,2337.3 c -9.7,-50.88 -46.74,-86.58 -82.74,-79.72 -36,6.86 -57.32,53.67 -47.63,104.57 9.7,50.89 46.75,86.58 82.75,79.72 35.99,-6.86 57.31,-53.68 47.62,-104.57"
         style="fill:#465884;fill-opacity:1;fill-rule:nonzero;stroke:none"
         id="path188" />
      <path
         d="m 5202.16,2441.87 -25.49,2.98 -35.12,-184.28 25.49,-2.99 35.27,19.55 39.62,95.59 -39.77,69.15"
         style="fill:#465884;fill-opacity:1;fill-rule:nonzero;stroke:none"
         id="path190" />
      <path
         d="m 5224.3,2340.29 c -9.71,-50.89 -46.75,-86.58 -82.75,-79.72 -35.99,6.85 -57.31,53.67 -47.61,104.56 9.69,50.89 46.73,86.58 82.73,79.72 36,-6.86 57.32,-53.67 47.63,-104.56"
         style="fill:#6876aa;fill-opacity:1;fill-rule:nonzero;stroke:none"
         id="path192" />
      <path
         d="m 5232.51,2674.49 c 0,0 -36.7,-22.97 -53.2,-48.39 -16.52,-25.42 -30.72,-215.29 -30.72,-215.29 l 58.61,-5.45 25.31,269.13"
         style="fill:#6876aa;fill-opacity:1;fill-rule:nonzero;stroke:none"
         id="path194" />
      <path
         d="m 5640.98,2039.59 c 0,0 91.43,237.61 88.55,257.09 -2.88,19.49 -43.89,207.86 -69.96,219.54 -20.51,9.18 -36.52,-11.82 -36.52,-11.82 0,0 -8.57,15.36 -26.26,9.56 -16.32,-5.34 -25.09,-30.92 -25.09,-30.92 0,0 -13.79,5.34 -29.6,-13.08 -24.79,-28.9 -1.06,-147.86 -1.06,-147.86 0,0 -48.38,-8.21 -97.63,-138.77 -56.81,-150.6 101.17,-214.63 101.17,-214.63 l 96.4,70.89"
         style="fill:#f48462;fill-opacity:1;fill-rule:nonzero;stroke:none"
         id="path196" />
      <path
         d="m 5608.74,2342.48 c -2.84,0 -5.46,1.84 -6.3,4.7 l -37.35,126.04 c -1.04,3.48 0.95,7.14 4.43,8.17 3.53,1.04 7.15,-0.96 8.17,-4.44 l 37.35,-126.04 c 1.03,-3.47 -0.95,-7.13 -4.43,-8.16 -0.63,-0.19 -1.25,-0.27 -1.87,-0.27"
         style="fill:#000000;fill-opacity:1;fill-rule:nonzero;stroke:none"
         id="path198" />
      <path
         d="m 5681.45,2342.9 c -2.66,0 -5.16,1.62 -6.16,4.25 l -58.4,154.93 c -1.27,3.4 0.44,7.19 3.84,8.47 3.39,1.28 7.19,-0.44 8.47,-3.83 l 58.4,-154.93 c 1.28,-3.4 -0.44,-7.19 -3.84,-8.47 -0.76,-0.29 -1.54,-0.42 -2.31,-0.42"
         style="fill:#000000;fill-opacity:1;fill-rule:nonzero;stroke:none"
         id="path200" />
      <path
         d="m 5383.72,2377.09 c -21.44,0 -40.04,15.92 -40.98,16.72 -2.73,2.39 -3.01,6.52 -0.64,9.26 2.37,2.74 6.5,3.05 9.27,0.67 0.22,-0.19 21.93,-18.66 41.1,-12.09 3.44,1.19 7.17,-0.65 8.34,-4.08 1.18,-3.43 -0.64,-7.17 -4.08,-8.35 -4.37,-1.5 -8.74,-2.13 -13.01,-2.13"
         style="fill:#000000;fill-opacity:1;fill-rule:nonzero;stroke:none"
         id="path202" />
      <path
         d="m 5490.98,2365.44 c -6.87,0 -13.82,1.26 -19.74,4.84 -3.1,1.88 -4.09,5.92 -2.22,9.03 1.88,3.1 5.9,4.11 9.04,2.21 11.09,-6.73 32.27,-0.13 39.49,2.98 3.3,1.44 7.19,-0.1 8.63,-3.44 1.44,-3.33 -0.1,-7.19 -3.43,-8.62 -2.25,-0.98 -16.79,-7 -31.77,-7"
         style="fill:#000000;fill-opacity:1;fill-rule:nonzero;stroke:none"
         id="path204" />
      <path
         d="m 5369.63,2243.75 c -2.23,0 -4.55,-0.47 -7.02,-1.42 -5.28,-2.02 -7.45,-4.43 -6.47,-7.19 2.34,-6.52 16.77,-14.42 34.97,-10.97 -2.88,6.34 -7.9,14.6 -14.71,17.98 -2.16,1.06 -4.41,1.6 -6.77,1.6 z m 12.69,-33.54 c -18.74,0 -34.39,8.9 -38.55,20.49 -2.7,7.51 -0.61,18.27 14.15,23.91 8.56,3.28 16.78,3.07 24.36,-0.71 16.71,-8.31 23.59,-31.4 23.87,-32.39 0.99,-3.38 -0.88,-6.93 -4.22,-8.06 -6.67,-2.23 -13.31,-3.24 -19.61,-3.24"
         style="fill:#000000;fill-opacity:1;fill-rule:nonzero;stroke:none"
         id="path206" />
      <path
         d="m 5311.16,1983.82 c -144.35,0 -186.68,100.23 -187.13,101.35 -1.35,3.36 0.27,7.18 3.63,8.54 3.35,1.36 7.18,-0.24 8.55,-3.6 1.91,-4.66 48.49,-113.49 221.11,-89.86 3.56,0.52 6.91,-2.01 7.41,-5.61 0.48,-3.6 -2.02,-6.92 -5.63,-7.4 -17.09,-2.35 -33.07,-3.42 -47.94,-3.42"
         style="fill:#ffffff;fill-opacity:1;fill-rule:nonzero;stroke:none"
         id="path208" />
      <path
         d="m 5581.21,1045.16 c 0,0 188.45,-117.578 326.21,30.78 186.77,201.14 -245.37,1059.09 -245.37,1059.09 l -199.29,-95.84 60.38,-346.1 58.07,-647.93"
         style="fill:#f48462;fill-opacity:1;fill-rule:nonzero;stroke:none"
         id="path210" />
      <path
         d="m 9453.77,2527.54 c 0,0 135.49,31.34 230.57,-87.74 95.08,-119.07 100.37,-746.17 100.37,-746.17 l -390.7,186.02 -2.71,340.91 62.47,306.98"
         style="fill:#000000;fill-opacity:1;fill-rule:nonzero;stroke:none"
         id="path212" />
      <path
         d="m 1202.18,2020.67 c 0,0 278.03,-21.1 382.44,-136.11 104.4,-115.01 -33.56,-836.1 -41.02,-846.15 -7.46,-10.05 -103.22,-48.762 -440.8,-42.371 -337.573,6.391 -444.362,19.661 -455.55,35.171 -11.187,15.52 -102.234,839.99 -20.203,908.98 82.031,68.98 371.683,101.57 575.133,80.48"
         style="fill:#92b4ea;fill-opacity:1;fill-rule:nonzero;stroke:none"
         id="path214" />
      <path
         d="m 1036.56,2164.8 4.02,-180.86 c 0,0 33.77,-51.26 139.76,-57.51 78.97,-4.66 106.26,13.77 106.26,13.77 l -13.03,91.35 -12.81,89.09 -191.99,37.78 -32.21,6.38"
         style="fill:#f48462;fill-opacity:1;fill-rule:nonzero;stroke:none"
         id="path216" />
      <path
         d="m 1068.77,2158.42 c 0.57,-4.92 2.57,-10.71 5.64,-17.33 42.48,-89.44 153.55,-106.47 199.16,-109.54 l -12.81,89.09 -191.99,37.78"
         style="fill:#000000;fill-opacity:1;fill-rule:nonzero;stroke:none"
         id="path218" />
      <path
         d="m 1291.93,2533.78 c 0,0 99.95,-224.65 65.34,-351.47 -34.62,-126.82 -150.09,-107.67 -219.25,-83.66 -69.17,24.01 -101.48,66.11 -101.48,66.11 0,0 -64.313,-22.29 -107.829,37.36 -43.512,59.65 -17.426,128.66 19.266,144.68 36.703,16.02 80.643,-10.26 80.643,-10.26 l -34.737,65.25 c 0,0 142.087,333.73 298.047,131.99"
         style="fill:#f48462;fill-opacity:1;fill-rule:nonzero;stroke:none"
         id="path220" />
      <path
         d="m 1283.45,2248.04 c -0.64,0 -1.3,0.09 -1.95,0.29 -3.46,1.07 -5.4,4.76 -4.33,8.22 12.89,41.66 -18.29,86.82 -18.61,87.27 -2.08,2.97 -1.36,7.07 1.61,9.15 2.95,2.08 7.05,1.38 9.14,-1.59 1.45,-2.05 35.23,-50.82 20.42,-98.71 -0.88,-2.82 -3.48,-4.63 -6.28,-4.63"
         style="fill:#000000;fill-opacity:1;fill-rule:nonzero;stroke:none"
         id="path222" />
      <path
         d="m 1019.04,2231.47 c -1.74,0 -3.48,0.69 -4.78,2.06 l -61.201,64.86 c -2.493,2.64 -2.371,6.8 0.265,9.29 2.645,2.48 6.797,2.37 9.293,-0.27 l 61.203,-64.86 c 2.49,-2.64 2.37,-6.8 -0.27,-9.29 -1.26,-1.19 -2.89,-1.79 -4.51,-1.79"
         style="fill:#000000;fill-opacity:1;fill-rule:nonzero;stroke:none"
         id="path224" />
      <path
         d="m 954.246,2248.85 c -3.191,0 -5.992,2.33 -6.488,5.58 -0.539,3.59 1.926,6.94 5.512,7.49 l 42.335,6.41 c 3.657,0.52 6.945,-1.92 7.485,-5.51 0.54,-3.59 -1.92,-6.94 -5.512,-7.48 l -42.336,-6.42 c -0.336,-0.05 -0.668,-0.07 -0.996,-0.07"
         style="fill:#000000;fill-opacity:1;fill-rule:nonzero;stroke:none"
         id="path226" />
      <path
         d="m 2386.38,1540.07 6.4,40.38 c 0,0 154.87,117.89 250.16,156.8 40.09,16.36 96.27,2.72 48.89,-50.36 -25.58,-28.64 -38.33,-62.69 -38.33,-62.69 0,0 76.52,24.17 129.03,58.96 33.63,22.29 82.77,111.87 111.6,92.46 45.86,-30.89 -6.85,-118.33 -6.85,-118.33 0,0 23.82,110.77 69.08,67.53 45.09,-43.07 -78.07,-260.59 -136.72,-312.53 -58.65,-51.94 -368.09,-112.43 -368.09,-112.43 l -65.17,240.21"
         style="fill:#f48462;fill-opacity:1;fill-rule:nonzero;stroke:none"
         id="path228" />
      <path
         d="m 2712.45,1577.01 c -3.34,0 -6.2,2.54 -6.53,5.93 -0.35,3.61 2.29,6.83 5.9,7.19 67.43,6.62 131.72,66.52 132.36,67.13 2.65,2.47 6.8,2.36 9.29,-0.28 2.49,-2.64 2.37,-6.8 -0.27,-9.29 -2.75,-2.59 -68.14,-63.58 -140.09,-70.65 -0.22,-0.02 -0.44,-0.03 -0.66,-0.03"
         style="fill:#000000;fill-opacity:1;fill-rule:nonzero;stroke:none"
         id="path230" />
      <path
         d="m 2792.68,1526.75 c -1.18,0 -2.36,0.31 -3.41,0.96 l -135.68,82.33 c -3.11,1.87 -4.09,5.92 -2.21,9.02 1.89,3.11 5.93,4.11 9.03,2.21 l 131.88,-80.03 61.15,45.83 c 2.89,2.17 7.02,1.58 9.2,-1.32 2.17,-2.91 1.58,-7.03 -1.32,-9.2 l -64.7,-48.49 c -1.16,-0.87 -2.55,-1.31 -3.94,-1.31"
         style="fill:#000000;fill-opacity:1;fill-rule:nonzero;stroke:none"
         id="path232" />
      <path
         d="m 2531.73,1529.06 c -2.9,0 -5.58,1.86 -6.5,4.77 -1.13,3.59 0.86,7.42 4.45,8.55 73.69,23.24 121.72,77.23 122.2,77.77 2.48,2.83 6.79,3.1 9.61,0.63 2.83,-2.49 3.11,-6.79 0.63,-9.62 -2.04,-2.33 -50.89,-57.36 -128.34,-81.79 -0.68,-0.21 -1.37,-0.31 -2.05,-0.31"
         style="fill:#000000;fill-opacity:1;fill-rule:nonzero;stroke:none"
         id="path234" />
      <path
         d="m 1584.62,1884.56 c 0,0 280.53,-266.53 534.97,-282.81 122.69,-7.84 287.28,50.72 287.28,50.72 l 146.23,-382.63 c 0,0 -514.13,-487.149 -1037.9,-103.26 -150.51,110.31 69.42,717.98 69.42,717.98"
         style="fill:#92b4ea;fill-opacity:1;fill-rule:nonzero;stroke:none"
         id="path236" />
      <path
         d="m 1548.32,1237.64 c -3.38,0 -6.25,2.58 -6.54,6.02 -7.39,88.03 -22.34,255.05 -22.49,256.73 -0.33,3.61 2.35,6.81 5.96,7.13 3.59,0.32 6.81,-2.33 7.13,-5.96 0.15,-1.68 15.1,-168.74 22.49,-256.8 0.31,-3.62 -2.38,-6.8 -5.99,-7.1 -0.19,-0.01 -0.38,-0.02 -0.56,-0.02"
         style="fill:#e6f4ff;fill-opacity:1;fill-rule:nonzero;stroke:none"
         id="path238" />
      <path
         d="m 1089.26,995.328 c 0,0 150.88,6.342 183.88,10.852 33,4.5 178.28,-18.75 183.12,6.35 l -54.73,39.41 c 0,0 146.32,-17.1 191.42,6.29 45.11,23.38 57.92,36.69 68.93,72.63 11,35.95 -79.37,51.56 -79.37,51.56 0,0 58.79,36.59 -15.89,67.91 -74.69,31.32 -397.42,77.8 -531.8,-6.49 -134.375,-84.29 54.44,-248.512 54.44,-248.512"
         style="fill:#f48462;fill-opacity:1;fill-rule:nonzero;stroke:none"
         id="path240" />
      <path
         d="m 1582.51,1175.85 c -0.7,0 -1.42,0.11 -2.11,0.35 -77.57,26.39 -160.48,15.06 -161.31,14.95 -3.59,-0.55 -6.93,1.98 -7.43,5.58 -0.51,3.59 1.99,6.92 5.58,7.43 3.51,0.51 86.77,11.91 167.38,-15.52 3.44,-1.17 5.28,-4.9 4.11,-8.34 -0.93,-2.73 -3.49,-4.45 -6.22,-4.45"
         style="fill:#000000;fill-opacity:1;fill-rule:nonzero;stroke:none"
         id="path242" />
      <path
         d="m 627.047,1940.19 c 0,0 -575.2931,-322.16 -441.75,-795.8 C 280.293,807.48 1199.7,938.391 1199.7,938.391 l -10.35,398.739 -494.037,77.37 -68.266,525.69"
         style="fill:#92b4ea;fill-opacity:1;fill-rule:nonzero;stroke:none"
         id="path244" />
      <path
         d="m 615.805,1441.87 c -22.387,0 -42.969,-5.49 -57.309,-20.52 -4.859,-5.1 -7.219,-9.52 -6.148,-11.55 7.687,-14.56 94.722,-10.59 178.218,1.56 -25.601,11.68 -73.277,30.51 -114.761,30.51 z m -8.063,-54.67 c -33.347,0 -60.5,4.12 -67.019,16.47 -4.075,7.73 -1.293,16.72 8.261,26.74 59.563,62.43 200.465,-13.33 206.438,-16.58 2.465,-1.35 3.801,-4.11 3.332,-6.88 -0.473,-2.76 -2.652,-4.93 -5.418,-5.38 -27.734,-4.53 -94.055,-14.37 -145.594,-14.37"
         style="fill:#e6f4ff;fill-opacity:1;fill-rule:nonzero;stroke:none"
         id="path246" />
      <path
         d="m 1276.87,2008.47 c 0,0 57.54,-193.15 38.18,-189.38 -19.36,3.78 -134.71,107.34 -134.71,107.34 0,0 -90.88,-112.56 -118.41,-113.28 -27.53,-0.71 -25.37,212.94 -25.37,212.94 0,0 23.49,-65.01 125.41,-79.59 101.91,-14.59 114.9,61.97 114.9,61.97"
         style="fill:#e6f4ff;fill-opacity:1;fill-rule:nonzero;stroke:none"
         id="path248" />
      <path
         d="m 1161.57,2422.46 c -3.1,0 -5.86,2.2 -6.45,5.35 -0.67,3.57 1.67,7.01 5.24,7.68 l 50.63,9.56 c 3.55,0.64 7.01,-1.67 7.68,-5.24 0.67,-3.56 -1.67,-7 -5.24,-7.68 l -50.63,-9.56 c -0.42,-0.07 -0.83,-0.11 -1.23,-0.11"
         style="fill:#000000;fill-opacity:1;fill-rule:nonzero;stroke:none"
         id="path250" />
      <path
         d="m 1319.03,2432.02 c -0.64,0 -1.3,0.1 -1.95,0.3 l -32.44,10.11 c -3.46,1.08 -5.4,4.76 -4.32,8.22 1.08,3.47 4.74,5.39 8.23,4.33 l 32.44,-10.11 c 3.46,-1.08 5.4,-4.77 4.32,-8.23 -0.88,-2.82 -3.47,-4.62 -6.28,-4.62"
         style="fill:#000000;fill-opacity:1;fill-rule:nonzero;stroke:none"
         id="path252" />
      <path
         d="m 1587.08,1065.59 h 861 l 245.9,556.22 h -827.04 c -20.64,0 -39.33,-12.18 -47.68,-31.05 l -232.18,-525.17"
         style="fill:#ffffff;fill-opacity:1;fill-rule:nonzero;stroke:none"
         id="path254" />
      <path
         d="m 1661.88,1065.59 h 860.99 l 219.46,496.4 c 12.45,28.16 -8.16,59.82 -38.95,59.82 h -795.6 l -245.9,-556.22"
         style="fill:#465884;fill-opacity:1;fill-rule:nonzero;stroke:none"
         id="path256" />
      <path
         d="m 1298.47,995.328 h 1215.62 c 19.4,0 35.13,15.722 35.13,35.132 0,19.4 -15.73,35.13 -35.13,35.13 H 1298.47 c -19.4,0 -35.13,-15.73 -35.13,-35.13 0,-19.41 15.73,-35.132 35.13,-35.132"
         style="fill:#a37b90;fill-opacity:1;fill-rule:nonzero;stroke:none"
         id="path258" />
      <path
         d="m 2130.82,1343.7 c 0,-40.39 32.74,-73.13 73.13,-73.13 40.39,0 73.13,32.74 73.13,73.13 0,40.38 -32.74,73.13 -73.13,73.13 -40.39,0 -73.13,-32.75 -73.13,-73.13"
         style="fill:#ffffff;fill-opacity:1;fill-rule:nonzero;stroke:none"
         id="path260" />
      <path
         d="m 1305.98,2342.08 c -3.21,0 -6.01,2.35 -6.5,5.62 l -6.16,41.88 c -0.27,1.84 0.25,3.7 1.44,5.14 l 14.95,18.12 c 2.31,2.8 6.45,3.2 9.25,0.89 2.8,-2.31 3.2,-6.45 0.89,-9.26 l -13.1,-15.87 5.74,-38.99 c 0.53,-3.58 -1.96,-6.92 -5.55,-7.46 -0.32,-0.04 -0.65,-0.07 -0.96,-0.07"
         style="fill:#000000;fill-opacity:1;fill-rule:nonzero;stroke:none"
         id="path262" />
      <path
         d="m 1190.89,2333.29 c -3.2,0 -6.01,2.34 -6.5,5.61 l -6.15,41.87 c -0.27,1.84 0.25,3.71 1.43,5.14 l 14.95,18.12 c 2.31,2.8 6.46,3.21 9.25,0.89 2.8,-2.31 3.2,-6.45 0.89,-9.25 l -13.09,-15.87 5.73,-38.98 c 0.53,-3.6 -1.96,-6.93 -5.54,-7.47 -0.33,-0.04 -0.65,-0.06 -0.97,-0.06"
         style="fill:#000000;fill-opacity:1;fill-rule:nonzero;stroke:none"
         id="path264" />
      <path
         d="m 1068.78,1378.69 c -0.3,0 -0.61,0.02 -0.92,0.07 -2.25,0.31 -226.458,31.39 -314.946,22.75 -3.566,-0.33 -6.824,2.3 -7.184,5.91 -0.347,3.61 2.293,6.83 5.907,7.18 90.074,8.71 308.773,-21.53 318.043,-22.83 3.59,-0.5 6.1,-3.82 5.6,-7.41 -0.46,-3.3 -3.28,-5.67 -6.5,-5.67"
         style="fill:#e6f4ff;fill-opacity:1;fill-rule:nonzero;stroke:none"
         id="path266" />
      <path
         d="m 1044.4,2315.2 c 0,0 60.01,42.84 54.77,105.41 -5.24,62.56 -19.42,78.19 -19.42,78.19 0,0 64.72,1.09 137.96,15.36 39.64,7.71 74.22,19.62 74.22,19.62 l 20.64,-51.92 c 17.98,1.27 45.25,136.57 -3.2,181.89 -33.96,31.76 -171.35,-35.52 -171.35,-35.52 0,0 -153.68,32.08 -240.161,-78.81 -86.476,-110.88 16.731,-236.3 16.731,-236.3 0,0 24.996,56.67 129.81,2.08"
         style="fill:#000000;fill-opacity:1;fill-rule:nonzero;stroke:none"
         id="path268" />
      <path
         d="m 1212.22,2598.58 c 0,0 37.97,109.72 -41.05,127.16 -79.01,17.43 -142.37,-80.8 -142.37,-80.8 0,0 -2.37,54.35 -61.03,35.75 -58.665,-18.6 -110.442,-192.11 -81.379,-204.9 29.062,-12.79 325.829,122.79 325.829,122.79"
         style="fill:#000000;fill-opacity:1;fill-rule:nonzero;stroke:none"
         id="path270" />
      <path
         d="m 1232.46,2204.95 c 4.86,-7.08 13.46,-16.08 26.44,-17.97 13.21,-1.94 23.61,9.34 29.52,17.97 z m 29.57,-31.35 c -1.63,0 -3.31,0.12 -5.04,0.37 -29.62,4.33 -41.31,33.94 -41.79,35.2 -0.77,2.02 -0.5,4.29 0.72,6.07 1.23,1.79 3.25,2.86 5.42,2.86 h 78.48 c 2.24,0 4.32,-1.14 5.52,-3.01 1.21,-1.87 1.39,-4.24 0.48,-6.27 -0.69,-1.52 -16.22,-35.22 -43.79,-35.22"
         style="fill:#000000;fill-opacity:1;fill-rule:nonzero;stroke:none"
         id="path272" />
      <path
         d="m 8605.99,1631.03 -77.62,329.65 -299.55,-25.16 c 0,0 -183.67,-762.4 99.92,-893.04 261.95,-120.679 473.5,126.03 473.5,126.03 l -196.25,462.52"
         style="fill:#f48462;fill-opacity:1;fill-rule:nonzero;stroke:none"
         id="path274" />
      <path
         d="m 9918.54,1344.81 c 0,0 -96.15,589.2 -381.25,659.65 -285.09,70.46 -403.56,7.8 -563.14,-60.24 -154.26,-65.76 -368.16,-313.19 -368.16,-313.19 l 122.92,-547.04 158.38,29.74 -2.62,-208.992 839.66,-22.398 106.59,438.06 87.62,24.41"
         style="fill:#68b6d8;fill-opacity:1;fill-rule:nonzero;stroke:none"
         id="path276" />
      <path
         d="m 9378.48,2182.05 1.13,-182.17 c 0,0 -32.53,-52.57 -139.04,-61.89 -79.35,-6.95 -107.35,10.83 -107.35,10.83 l 10.5,92.32 10.35,90.04 192.17,43.53 32.24,7.34"
         style="fill:#f48462;fill-opacity:1;fill-rule:nonzero;stroke:none"
         id="path278" />
      <path
         d="m 9346.24,2174.71 c -0.43,-4.98 -2.28,-10.86 -5.19,-17.62 -40.19,-91.24 -151.51,-111.56 -197.33,-115.95 l 10.35,90.04 192.17,43.53"
         style="fill:#000000;fill-opacity:1;fill-rule:nonzero;stroke:none"
         id="path280" />
      <path
         d="m 9110.87,2546.15 c 0,0 -94.18,-228.99 -55.7,-355.65 38.47,-126.67 154.15,-104.08 223.07,-77.94 68.95,26.14 100.27,69.45 100.27,69.45 0,0 65.37,-20.59 107.46,40.69 42.1,61.29 13.86,130.01 -23.54,145.08 -37.39,15.08 -80.88,-12.63 -80.88,-12.63 l 33.11,66.67 c 0,0 -152.57,331.87 -303.79,124.33"
         style="fill:#f48462;fill-opacity:1;fill-rule:nonzero;stroke:none"
         id="path282" />
      <path
         d="m 9127.39,2258.81 c -2.73,0 -5.29,1.72 -6.22,4.45 -16.27,47.78 16.33,97.8 17.73,99.91 1.99,3.03 6.09,3.84 9.1,1.85 3.03,-2 3.86,-6.07 1.85,-9.1 -0.3,-0.47 -30.41,-46.83 -16.24,-88.42 1.18,-3.44 -0.66,-7.17 -4.1,-8.34 -0.7,-0.24 -1.41,-0.35 -2.12,-0.35"
         style="fill:#000000;fill-opacity:1;fill-rule:nonzero;stroke:none"
         id="path284" />
      <path
         d="m 9394.01,2249.7 c -1.56,0 -3.11,0.55 -4.37,1.67 -2.71,2.41 -2.95,6.57 -0.53,9.28 l 59.76,67.04 c 2.43,2.7 6.56,2.93 9.27,0.53 2.71,-2.42 2.95,-6.57 0.53,-9.28 l -59.75,-67.04 c -1.3,-1.46 -3.1,-2.2 -4.91,-2.2"
         style="fill:#000000;fill-opacity:1;fill-rule:nonzero;stroke:none"
         id="path286" />
      <path
         d="m 9458.74,2269.05 c -0.26,0 -0.54,0.01 -0.81,0.05 l -42.79,5.24 c -3.61,0.45 -6.17,3.72 -5.73,7.33 0.44,3.59 3.61,6.23 7.33,5.72 l 42.79,-5.25 c 3.6,-0.44 6.16,-3.72 5.72,-7.32 -0.41,-3.33 -3.24,-5.77 -6.51,-5.77"
         style="fill:#000000;fill-opacity:1;fill-rule:nonzero;stroke:none"
         id="path288" />
      <path
         d="m 9254.17,2435 c -1.48,0 -2.97,0.5 -4.2,1.52 -18.6,15.47 -47.62,4.8 -47.91,4.69 -3.38,-1.28 -7.18,0.43 -8.47,3.82 -1.28,3.39 0.42,7.18 3.8,8.47 1.48,0.56 36.43,13.54 60.98,-6.87 2.79,-2.32 3.17,-6.46 0.86,-9.25 -1.3,-1.56 -3.18,-2.38 -5.06,-2.38"
         style="fill:#000000;fill-opacity:1;fill-rule:nonzero;stroke:none"
         id="path290" />
      <path
         d="m 9078.34,2440.82 c -1.34,0 -2.69,0.4 -3.84,1.24 -2.92,2.11 -3.61,6.17 -1.51,9.11 6.34,8.91 25.05,22.3 50.46,9.34 3.23,-1.66 4.51,-5.61 2.86,-8.84 -1.65,-3.23 -5.62,-4.51 -8.84,-2.87 -21.08,10.78 -32.56,-3.62 -33.81,-5.29 -1.29,-1.76 -3.3,-2.69 -5.32,-2.69"
         style="fill:#000000;fill-opacity:1;fill-rule:nonzero;stroke:none"
         id="path292" />
      <path
         d="m 9227.76,2346.33 c -0.21,0 -0.44,0.01 -0.65,0.03 -3.61,0.36 -6.25,3.58 -5.9,7.18 l 3.94,39.85 -16.21,21.28 c -2.21,2.89 -1.65,7.01 1.24,9.22 2.89,2.17 7.02,1.64 9.2,-1.25 l 17.79,-23.34 c 1,-1.33 1.47,-2.98 1.32,-4.63 l -4.19,-42.41 c -0.34,-3.4 -3.2,-5.93 -6.54,-5.93"
         style="fill:#000000;fill-opacity:1;fill-rule:nonzero;stroke:none"
         id="path294" />
      <path
         d="m 9102.02,2352.84 c -0.26,0 -0.52,0.01 -0.78,0.04 -3.6,0.43 -6.18,3.7 -5.75,7.3 l 4.72,39.95 -13.93,21.29 c -1.99,3.04 -1.14,7.11 1.89,9.1 3.07,1.99 7.12,1.14 9.11,-1.9 l 15.24,-23.29 c 0.85,-1.29 1.21,-2.83 1.02,-4.37 l -5,-42.32 c -0.4,-3.35 -3.24,-5.8 -6.52,-5.8"
         style="fill:#000000;fill-opacity:1;fill-rule:nonzero;stroke:none"
         id="path296" />
      <path
         d="m 9378.01,2320.01 c 0,0 -67.53,37 -94.15,89.49 -26.62,52.49 -18.9,102.03 -18.9,102.03 0,0 -42.58,-28.91 -103.28,-20.19 -60.7,8.73 -95.01,70.33 -83.51,117.64 5.73,23.58 48.76,14.79 48.76,14.79 0,0 44.57,57.65 121.46,47.65 76.89,-10 96.52,-55.17 96.52,-55.17 0,0 61.75,1.11 108.04,-32.28 46.29,-33.39 46.61,-103.06 46.61,-103.06 0,0 36.53,-19.15 37.71,-55.92 1.17,-36.77 -35.01,-106.47 -35.01,-106.47 0,0 -53.34,76.94 -124.25,1.49"
         style="fill:#000000;fill-opacity:1;fill-rule:nonzero;stroke:none"
         id="path298" />
      <path
         d="m 8891.18,1081.09 c -3.63,0 -6.57,2.94 -6.57,6.58 v 192.15 c -3.26,10.08 -28.65,91.22 -38.47,204.57 -10.56,122.05 75.2,260.38 78.85,266.21 1.93,3.06 5.98,4 9.05,2.07 3.08,-1.93 4.02,-5.99 2.08,-9.06 -0.87,-1.39 -87.07,-140.48 -76.89,-258.08 10.3,-118.97 37.9,-201.73 38.18,-202.56 0.23,-0.68 0.34,-1.39 0.34,-2.1 v -193.2 c 0,-3.64 -2.94,-6.58 -6.57,-6.58"
         style="fill:#465884;fill-opacity:1;fill-rule:nonzero;stroke:none"
         id="path300" />
      <path
         d="m 9391.88,1393.42 c -0.29,-0.18 -0.69,-0.47 -1.21,-0.95 -16.62,-15.18 -5.84,-75.73 8.63,-125.6 2.56,60.59 0.54,118.63 -7.42,126.55 z m 11.99,-168.71 c -2.75,0 -5.25,1.72 -6.18,4.35 -5.19,14.47 -49.69,142.23 -15.88,173.12 6.78,6.19 12.53,4.84 15.36,3.46 22.46,-10.86 16.75,-125.88 13.25,-174.83 -0.21,-3.1 -2.58,-5.61 -5.65,-6.04 -0.31,-0.04 -0.61,-0.06 -0.9,-0.06"
         style="fill:#465884;fill-opacity:1;fill-rule:nonzero;stroke:none"
         id="path302" />
      <path
         d="m 8539.71,2081.63 c 0,0 -26.85,119.11 -90.49,173.38 -63.64,54.27 -138.93,89.24 -125.75,40.95 13.16,-48.29 57.23,-127.21 57.23,-127.21 l -115.46,30.75 c 0,0 -75.29,34.97 -129.98,49.53 -54.68,14.57 -71.9,-25.63 -71.9,-25.63 0,0 -54.69,14.56 -78.49,-1.5 -23.8,-16.05 -6.91,-50.4 -6.91,-50.4 0,0 -78.49,-1.5 -48.95,-61.61 29.55,-60.12 184.86,-161.18 260.14,-196.16 75.28,-34.97 244.92,-57.74 244.92,-57.74 0,0 152.36,-33.32 105.64,225.64"
         style="fill:#f48462;fill-opacity:1;fill-rule:nonzero;stroke:none"
         id="path304" />
      <path
         d="m 8117.51,2055.42 c -2.34,0 -4.62,1.26 -5.8,3.47 -1.72,3.2 -0.52,7.18 2.68,8.9 l 200.28,107.39 c 3.19,1.72 7.19,0.51 8.89,-2.68 1.72,-3.2 0.52,-7.19 -2.68,-8.9 l -200.27,-107.39 c -0.99,-0.54 -2.06,-0.79 -3.1,-0.79"
         style="fill:#000000;fill-opacity:1;fill-rule:nonzero;stroke:none"
         id="path306" />
      <path
         d="m 8507.29,1990.68 c -0.55,0 -1.1,0.07 -1.66,0.21 -64.76,16.82 -106.65,44.54 -124.5,82.42 -19.57,41.5 -2.44,79.26 -1.7,80.85 1.53,3.27 5.43,4.71 8.71,3.18 3.3,-1.52 4.73,-5.43 3.22,-8.72 -0.16,-0.33 -15.27,-34.04 1.75,-69.9 16.17,-34.08 55.13,-59.35 115.83,-75.11 3.51,-0.91 5.62,-4.5 4.7,-8.01 -0.76,-2.96 -3.43,-4.92 -6.35,-4.92"
         style="fill:#000000;fill-opacity:1;fill-rule:nonzero;stroke:none"
         id="path308" />
      <path
         d="m 9029.29,1093.96 c 0,0 -124.99,22 -203.95,25.25 -78.94,3.26 -198.57,16.73 -241.32,45.12 -42.73,28.38 -54.41,10.38 -51.44,-21.25 2.97,-31.64 52.33,-64.84 52.33,-64.84 0,0 -134.76,-208.099 -118.9,-234.342 15.86,-26.238 104.71,23.59 104.71,23.59 0,0 6.89,-20.199 23.27,-28.777 16.39,-8.582 44.75,-6.41 44.75,-6.41 0,0 -0.72,-23.531 27.53,-39.16 28.25,-15.61 53.49,-6.422 53.49,-6.422 0,0 4.24,-44.02 26.89,-42.379 22.65,1.629 120.72,-2.231 124.89,26.07 4.17,28.301 -71.78,48.371 -71.78,48.371 l 5.61,48.617 c 0,0 56.55,-84.769 141.89,-69.398 85.33,15.371 111.93,117.809 111.93,117.809 l -29.9,178.151"
         style="fill:#f48462;fill-opacity:1;fill-rule:nonzero;stroke:none"
         id="path310" />
      <path
         d="m 8570.72,860.922 c -2.64,0 -5.13,1.609 -6.14,4.226 -34.28,89.903 78.96,192.482 83.81,196.802 2.69,2.4 6.85,2.19 9.28,-0.52 2.41,-2.71 2.17,-6.86 -0.52,-9.28 -1.12,-1 -111.35,-100.861 -80.28,-182.318 1.28,-3.383 -0.41,-7.184 -3.8,-8.48 -0.78,-0.301 -1.57,-0.43 -2.35,-0.43"
         style="fill:#000000;fill-opacity:1;fill-rule:nonzero;stroke:none"
         id="path312" />
      <path
         d="m 8638.73,825.73 c -2.69,0 -5.23,1.68 -6.19,4.372 -20.67,57.929 27.46,115.097 29.52,117.507 2.36,2.743 6.5,3.071 9.26,0.711 2.75,-2.351 3.08,-6.5 0.73,-9.261 -0.46,-0.528 -45.22,-53.848 -27.13,-104.547 1.22,-3.422 -0.56,-7.18 -3.98,-8.403 -0.73,-0.25 -1.48,-0.379 -2.21,-0.379"
         style="fill:#000000;fill-opacity:1;fill-rule:nonzero;stroke:none"
         id="path314" />
      <path
         d="m 8719.77,780.148 c -2.18,0 -4.31,1.071 -5.56,3.051 -28.45,44.84 -1.41,107.391 -0.25,110.031 1.48,3.309 5.38,4.809 8.67,3.36 3.32,-1.461 4.82,-5.34 3.37,-8.66 -0.26,-0.59 -25.36,-58.821 -0.7,-97.7 1.95,-3.05 1.04,-7.109 -2.02,-9.058 -1.09,-0.692 -2.31,-1.024 -3.51,-1.024"
         style="fill:#000000;fill-opacity:1;fill-rule:nonzero;stroke:none"
         id="path316" />
      <path
         d="m 9894.9,1338.23 c 0,0 57.66,-250.56 -7.14,-381.48 -92.38,-186.668 -865.71,-87.359 -865.71,-87.359 l -52.33,218.279 435.59,134.87 -1.44,8.74 c 0,0 171.65,45.21 491.03,106.95"
         style="fill:#f48462;fill-opacity:1;fill-rule:nonzero;stroke:none"
         id="path318" />
      <path
         d="m 9170.58,2208.93 c 7.96,-4.92 20.9,-10.41 34.36,-5.61 13.59,4.85 18.16,21.04 19.68,32.04 z m 23.43,-20.65 c -22.42,0 -39.65,16.25 -40.53,17.09 -1.56,1.48 -2.28,3.63 -1.95,5.75 0.34,2.12 1.68,3.95 3.61,4.89 l 73.91,36.15 c 2.02,0.98 4.38,0.87 6.29,-0.28 1.92,-1.15 3.11,-3.2 3.18,-5.43 0.04,-1.83 0.94,-44.76 -29.16,-55.51 -5.29,-1.89 -10.43,-2.66 -15.35,-2.66"
         style="fill:#000000;fill-opacity:1;fill-rule:nonzero;stroke:none"
         id="path320" />
      <path
         d="m 9217.32,1928.87 c -49.93,0 -85.76,13.54 -86.49,13.83 -3.38,1.31 -5.05,5.12 -3.73,8.5 1.32,3.38 5.13,5.05 8.51,3.74 1.43,-0.56 143.91,-54.13 253.66,60.66 2.51,2.62 6.67,2.72 9.28,0.21 2.63,-2.51 2.72,-6.67 0.21,-9.3 -59.67,-62.42 -128.49,-77.64 -181.44,-77.64"
         style="fill:#465884;fill-opacity:1;fill-rule:nonzero;stroke:none"
         id="path322" />
      <path
         d="m 1582.5,1100.52 c -1.21,0 -2.43,0.33 -3.53,1.03 -41.13,26.24 -159.12,17.56 -160.3,17.47 -3.6,-0.29 -6.78,2.44 -7.06,6.06 -0.28,3.61 2.43,6.78 6.05,7.05 5.03,0.38 123.59,9.09 168.38,-19.5 3.07,-1.96 3.96,-6.02 2.01,-9.08 -1.25,-1.96 -3.38,-3.03 -5.55,-3.03"
         style="fill:#000000;fill-opacity:1;fill-rule:nonzero;stroke:none"
         id="path324" />
      <path
         d="m 5272.49,1167.89 c 0,0 128.59,66.7 327.1,71.62 52.25,1.3 151.79,-77.76 160.52,-90.6 15.33,-22.55 -17.58,-39.7 -17.58,-39.7 0,0 57.8,-18.48 57.42,-44.4 -0.38,-25.91 -64.95,-37.39 -64.95,-37.39 0,0 44.46,-25.4 2.58,-48.709 -41.89,-23.32 -205.22,11.211 -205.22,11.211 0,0 -198.1,-140.391 -315,-5.481 -103.79,119.799 55.13,183.449 55.13,183.449"
         style="fill:#f48462;fill-opacity:1;fill-rule:nonzero;stroke:none"
         id="path326" />
      <path
         d="m 4054.49,1582.33 c 0,0 80.68,283.68 110.69,277.3 30,-6.38 -203.93,-636.29 -221.96,-632.31 -18.02,3.99 111.27,355.01 111.27,355.01"
         style="fill:#465884;fill-opacity:1;fill-rule:nonzero;stroke:none"
         id="path328" />
      <path
         d="m 3996.67,1236.53 c -17.11,-6.81 -105.86,356.57 -105.86,356.57 0,0 -44.22,135.97 -61.49,222.34 -7.61,37.71 -9.98,66.08 -1.42,69.57 5.7,2.22 16.48,-21.88 30.1,-62.12 54.36,-161.48 152.3,-580.97 138.67,-586.36"
         style="fill:#a37b90;fill-opacity:1;fill-rule:nonzero;stroke:none"
         id="path330" />
      <path
         d="m 4055.24,1196.28 h -166.7 c -10.81,0 -20.01,8.02 -21.68,18.89 l -42.75,277.51 c -2.09,13.56 8.2,25.82 21.68,25.82 h 252.2 c 13.48,0 23.78,-12.26 21.69,-25.82 l -42.75,-277.51 c -1.68,-10.87 -10.88,-18.89 -21.69,-18.89"
         style="fill:#b1a5b7;fill-opacity:1;fill-rule:nonzero;stroke:none"
         id="path332" />
      <path
         d="m 3858,1822.89 -28.68,-7.45 c -7.61,37.71 -9.98,66.08 -1.42,69.57 5.7,2.22 16.48,-21.88 30.1,-62.12"
         style="fill:#ffffff;fill-opacity:1;fill-rule:nonzero;stroke:none"
         id="path334" />
      <path
         d="m 3439.82,950.102 h 938.04 c 33.62,0 60.88,27.25 60.88,60.878 v 3.02 c 0,33.63 -27.26,60.88 -60.88,60.88 H 3439.82 V 950.102"
         style="fill:#b1a5b7;fill-opacity:1;fill-rule:nonzero;stroke:none"
         id="path336" />
      <path
         d="m 3441.58,950.102 h 601.26 c 31.71,0 57.41,25.699 57.41,57.418 v 9.94 c 0,31.71 -25.7,57.42 -57.41,57.42 h -601.26 c -11.29,0 -20.44,-9.15 -20.44,-20.44 v -83.901 c 0,-11.289 9.15,-20.437 20.44,-20.437"
         style="fill:#c8bcce;fill-opacity:1;fill-rule:nonzero;stroke:none"
         id="path338" />
      <path
         d="m 3421.14,974.199 h 612.4 c 21.58,0 39.08,17.492 39.08,39.071 v 1.08 c 0,21.58 -17.5,39.08 -39.08,39.08 h -612.4 v -79.231"
         style="fill:#ffffff;fill-opacity:1;fill-rule:nonzero;stroke:none"
         id="path340" />
      <path
         d="m 4201.15,1074.88 h -572.04 c -33.52,0 -60.7,27.18 -60.7,60.7 0,33.52 27.18,60.7 60.7,60.7 h 572.04 c 10.5,0 19.01,-8.51 19.01,-19 v -83.39 c 0,-10.5 -8.51,-19.01 -19.01,-19.01"
         style="fill:#ece8ef;fill-opacity:1;fill-rule:nonzero;stroke:none"
         id="path342" />
      <path
         d="m 4340.65,1074.88 h -572.04 c -33.53,0 -60.7,27.18 -60.7,60.7 0,33.52 27.17,60.7 60.7,60.7 h 572.04 c 10.49,0 19,-8.51 19,-19 v -83.39 c 0,-10.5 -8.51,-19.01 -19,-19.01"
         style="fill:#c8bcce;fill-opacity:1;fill-rule:nonzero;stroke:none"
         id="path344" />
      <path
         d="m 4359.65,1098.32 h -586.68 c -21.29,0 -38.54,17.26 -38.54,38.55 0,21.28 17.25,38.53 38.54,38.53 h 586.68 v -77.08"
         style="fill:#ffffff;fill-opacity:1;fill-rule:nonzero;stroke:none"
         id="path346" />
      <path
         d="m 8161.88,960.289 h -806.4 c -39.13,0 -70.85,31.731 -70.85,70.861 v 1.27 c 0,39.13 31.72,70.86 70.85,70.86 h 806.4 c 13.92,0 25.21,-11.29 25.21,-25.22 v -92.54 c 0,-13.942 -11.29,-25.231 -25.21,-25.231"
         style="fill:#f7b369;fill-opacity:1;fill-rule:nonzero;stroke:none"
         id="path348" />
      <path
         d="m 8271.34,958.781 h -709.4 c -36.84,0 -66.71,29.86 -66.71,66.709 v 9.57 c 0,36.84 29.87,66.71 66.71,66.71 h 709.4 c 13.11,0 23.74,-10.64 23.74,-23.74 v -95.51 c 0,-13.11 -10.63,-23.739 -23.74,-23.739"
         style="fill:#ffc892;fill-opacity:1;fill-rule:nonzero;stroke:none"
         id="path350" />
      <path
         d="m 8295.08,986.398 h -721.9 c -25.06,0 -45.39,20.322 -45.39,45.392 0,25.07 20.33,45.39 45.39,45.39 h 721.9 v -90.782"
         style="fill:#ffffff;fill-opacity:1;fill-rule:nonzero;stroke:none"
         id="path352" />
      <path
         d="m 7353.37,1100.63 h 797.98 c 39.48,0 71.49,32.01 71.49,71.49 0,39.48 -32.01,71.49 -71.49,71.49 h -797.98 c -1.04,0 -1.88,-0.84 -1.88,-1.87 V 1102.5 c 0,-1.04 0.84,-1.87 1.88,-1.87"
         style="fill:#c8bcce;fill-opacity:1;fill-rule:nonzero;stroke:none"
         id="path354" />
      <path
         d="m 7334.54,1100.63 h 616.92 c 39.48,0 71.49,32.01 71.49,71.49 0,39.48 -32.01,71.49 -71.49,71.49 h -616.92 c -12.36,0 -22.38,-10.02 -22.38,-22.38 v -98.22 c 0,-12.36 10.02,-22.38 22.38,-22.38"
         style="fill:#ece8ef;fill-opacity:1;fill-rule:nonzero;stroke:none"
         id="path356" />
      <path
         d="m 7312.16,1128.24 h 636.47 c 25.07,0 45.39,20.32 45.39,45.39 0,25.07 -20.32,45.39 -45.39,45.39 h -636.47 v -90.78"
         style="fill:#ffffff;fill-opacity:1;fill-rule:nonzero;stroke:none"
         id="path358" />
      <path
         d="M 7418.71,1242.48 H 8060 c 39.48,0 71.49,32 71.49,71.49 0,39.49 -32.01,71.49 -71.49,71.49 h -641.29 c -4.51,0 -8.16,-3.65 -8.16,-8.17 v -126.65 c 0,-4.51 3.65,-8.16 8.16,-8.16"
         style="fill:#b1a5b7;fill-opacity:1;fill-rule:nonzero;stroke:none"
         id="path360" />
      <path
         d="m 7398.36,1242.48 h 496.25 c 39.49,0 71.49,32 71.49,71.49 0,39.49 -32,71.49 -71.49,71.49 h -496.25 c -11.25,0 -20.36,-9.11 -20.36,-20.35 v -102.28 c 0,-11.24 9.11,-20.35 20.36,-20.35"
         style="fill:#c8bcce;fill-opacity:1;fill-rule:nonzero;stroke:none"
         id="path362" />
      <path
         d="m 7378,1270.09 h 518.78 c 25.07,0 45.39,20.32 45.39,45.39 0,25.08 -20.32,45.4 -45.39,45.4 H 7378 v -90.79"
         style="fill:#ece8ef;fill-opacity:1;fill-rule:nonzero;stroke:none"
         id="path364" />
      <path
         d="m 6568.04,1692.72 v 54.38 c 0,0 76.5,21.62 175.43,13.69 98.91,-7.92 170.1,-55.47 170.1,-55.47 0,0 89.93,48.4 195.58,57.22 105.64,8.82 167.33,0 167.33,0 l -11.5,-69.82 -375,-71.91 -321.94,71.91"
         style="fill:#ffffff;fill-opacity:1;fill-rule:nonzero;stroke:none"
         id="path366" />
      <path
         d="m 7284.63,1715.89 -105.7,-725.171 h -725.17 l 105.69,725.171 h 725.18"
         style="fill:#68b6d8;fill-opacity:1;fill-rule:nonzero;stroke:none"
         id="path368" />
      <path
         d="M 6943.44,1715.89 6853.9,990.719 h -70.36 l 89.54,725.171 h 70.36"
         style="fill:#53aac9;fill-opacity:1;fill-rule:nonzero;stroke:none"
         id="path370" />
      <path
         d="m 6317.14,1367.6 c 0,0 102.49,219.35 118.89,234.99 16.4,15.63 207.44,80.53 233.42,79.25 25.99,-1.27 -14.83,-59.17 -35.27,-75.51 -20.45,-16.33 -46.84,-33.98 -46.84,-33.98 0,0 143.01,-0.03 156.29,-24.18 13.29,-24.15 -25.02,-46.45 -25.02,-46.45 0,0 51.19,-4.36 32.84,-37.22 -18.36,-32.86 -158.72,-69.59 -158.72,-69.59 0,0 -26.78,-139.51 -121.24,-172.58 -94.45,-33.05 -138.59,-23.7 -138.59,-23.7 l -15.76,168.97"
         style="fill:#f48462;fill-opacity:1;fill-rule:nonzero;stroke:none"
         id="path372" />
      <path
         d="m 6478,1555.58 c -3.35,0 -6.21,2.55 -6.54,5.95 -0.34,3.63 2.32,6.82 5.93,7.16 l 109.33,10.21 c 3.73,0.39 6.82,-2.32 7.16,-5.93 0.34,-3.61 -2.32,-6.82 -5.93,-7.16 l -109.33,-10.2 c -0.21,-0.02 -0.42,-0.03 -0.62,-0.03"
         style="fill:#000000;fill-opacity:1;fill-rule:nonzero;stroke:none"
         id="path374" />
      <path
         d="m 6539.5,1482.71 c -3.46,0 -6.37,2.71 -6.55,6.23 -0.2,3.62 2.59,6.7 6.22,6.9 l 105.07,5.54 c 3.54,0.27 6.71,-2.59 6.9,-6.22 0.2,-3.63 -2.59,-6.71 -6.22,-6.91 l -105.07,-5.54 c -0.11,0 -0.23,0 -0.35,0"
         style="fill:#000000;fill-opacity:1;fill-rule:nonzero;stroke:none"
         id="path376" />
      <path
         d="m 5737.42,1103.21 c -1.02,0 -2.05,0.25 -2.98,0.72 l -138.04,70.2 c -3.24,1.65 -4.52,5.61 -2.88,8.84 1.64,3.23 5.56,4.55 8.83,2.88 l 135.85,-69.09 c 10.65,2.85 22.34,8.03 22.79,17.06 1.07,21.51 -52.4,61.7 -107.94,81.11 -54.5,19.05 -74.4,18.02 -74.62,18.05 -3.48,-0.34 -6.73,2.48 -6.98,6.09 -0.26,3.6 2.4,6.72 5.99,7.01 0.82,0.08 22.04,1.51 79.94,-18.75 50.04,-17.49 118.44,-59.94 116.74,-94.17 -0.71,-14.29 -12.55,-24.31 -35.16,-29.76 -0.5,-0.13 -1.02,-0.19 -1.54,-0.19"
         style="fill:#000000;fill-opacity:1;fill-rule:nonzero;stroke:none"
         id="path378" />
      <path
         d="m 5749.89,1008.13 c -0.97,0 -1.97,0.22 -2.9,0.68 l -142.21,70.03 c -3.27,1.6 -4.6,5.54 -3,8.8 1.6,3.24 5.54,4.61 8.8,2.99 l 142.21,-70.02 c 3.26,-1.61 4.6,-5.55 3,-8.8 -1.14,-2.33 -3.48,-3.68 -5.9,-3.68"
         style="fill:#000000;fill-opacity:1;fill-rule:nonzero;stroke:none"
         id="path380" />
      <path
         d="m 5749.9,1008.13 c -2.43,0 -4.75,1.35 -5.9,3.68 -1.6,3.25 -0.26,7.18 2.99,8.8 0.32,0.15 32.22,16.15 32.35,37.78 0.08,14.81 -15.43,30.56 -44.9,45.54 -3.23,1.65 -4.52,5.6 -2.88,8.83 1.65,3.24 5.58,4.55 8.84,2.88 34.71,-17.64 52.23,-36.95 52.08,-57.37 -0.21,-29.75 -38.09,-48.67 -39.7,-49.46 -0.92,-0.46 -1.91,-0.68 -2.88,-0.68"
         style="fill:#000000;fill-opacity:1;fill-rule:nonzero;stroke:none"
         id="path382" />
      <path
         d="m 5431.29,2120.73 c -4,0.2 -6.77,3.3 -6.57,6.93 6.15,113.23 84.43,181.85 87.76,184.72 2.74,2.38 6.89,2.05 9.26,-0.7 2.37,-2.74 2.07,-6.89 -0.69,-9.26 -0.77,-0.67 -77.37,-68 -83.21,-175.48 -0.19,-3.5 -3.08,-6.21 -6.55,-6.21"
         style="fill:#000000;fill-opacity:1;fill-rule:nonzero;stroke:none"
         id="path384" />
    </g>
  </g>
</svg>
